<svg xmlns="http://www.w3.org/2000/svg" version="1.0" viewBox="258.84 258.16 483.47 483.68">
  <path fill="#FC9" d="M472 259.5C361 273 273.5 360.7 260.5 471.6c-14.1 120.3 63 232.9 179.9 262.9 7.2 1.8 17.8 4.1 23.6 5 14.3 2.2 45.8 3.1 60.1 1.6 45.6-4.8 87.2-21.3 124.4-49.4 10.5-8 30.8-27.9 40-39.2 20.7-25.6 37.3-58 45.5-88.8 20.1-75.8 3.3-155.9-45.5-216.2-9.2-11.3-29.5-31.2-40-39.2-36.6-27.7-78.1-44.3-122.7-49.2-12.7-1.4-40.6-1.2-53.8.4zm23.8 29.7.2 20.7-7.2 6c-4 3.2-39.5 31.4-78.8 62.5s-72.5 57.5-73.7 58.5l-2.3 1.9v60.1c0 34.5.4 61 .9 62.4.8 1.9 11.9 11.5 24.9 21.3 1.2.9-.9 5.1-11.7 23.9-7.2 12.5-13.1 23.4-13.1 24.1 0 .7.7 2 1.6 2.8 1.4 1.4 6.9 1.6 45.4 1.6h43.9l34.3 27.2c18.9 14.9 34.6 27.6 35 28.2.5.6.7 10.1.5 21.1l-.2 20-8-.3c-19.4-.6-47.2-6.4-67.1-13.7-22-8.2-47-22.6-65.9-37.8-11.4-9.2-29.9-28.5-38.7-40.3-18.9-25.5-32.4-53.9-39.7-83.4-5.1-20.7-6.5-33.1-6.5-56s1.4-35.3 6.5-56c7.3-29.5 20.8-57.9 39.7-83.4 8.8-11.8 27.3-31.1 38.7-40.3 31.1-25.2 69.1-42.4 107.5-48.8 11.2-1.9 25.1-3.3 30-3.1l3.5.1.3 20.7zm33.7-19.1c60.6 7.1 118.4 40.6 155.9 90.5 80.3 107 54.1 258.6-57.4 332.8-33.9 22.6-68.5 34.1-114.8 38.2l-7.2.6.2-21.3.3-21.2 34.5-27.4 34.4-27.3h44.1c46.1 0 46.5 0 46.5-4.3 0-1.1-5.6-11.7-12.5-23.7-6.9-11.9-12.5-22.2-12.5-22.8 0-.6 5.5-5.5 12.3-10.9 6.7-5.3 12.5-10.1 12.9-10.7.4-.6.8-28.8.8-62.6v-61.5l-80.5-63.8-80.5-63.8v-43.1l7.3.6c3.9.4 11.3 1.1 16.2 1.7zm48 110.3c41.6 32.9 75.4 60.2 75.3 60.6-.5 1.2-63.6 51-64.7 51-.5 0-19.3-31.8-41.7-70.8-22.4-38.9-41.4-71.5-42.2-72.5-1.8-2-5.5-2.3-7-.5-.5.7-19.5 33.5-42.2 72.8-22.6 39.3-41.3 71.6-41.4 71.7-.6.6-65-51.3-64.7-52.2.5-1.7 150.5-120.4 151.8-120.2.7.1 35.2 27.2 76.8 60.1zm-.5 114.1c40.8 70.9 74.5 129.3 74.7 129.7.2.5-32.5.8-72.6.8H506v-29c0-29 0-29.1-2.3-31.3-1.3-1.2-20.2-16.3-42-33.6-29.3-23.1-39.6-31.8-39.2-33 .5-1.2 67-116.9 75.8-131.9 1.6-2.7 2.2-3.1 3.2-2 .7.7 34.7 59.3 75.5 130.3zm-155.9 17.4 74.9 59.4v52.8c0 29.1-.3 52.9-.5 52.9-.4 0-9.1-6.8-54-42.5-7.7-6.1-31.5-25-53-42-21.4-16.9-40.2-31.9-41.7-33.3l-2.8-2.6v-52.4c0-37.7.3-52.3 1.1-52 .6.2 34.8 27.1 76 59.7zm235.9-7.2v52.8l-10.4 8.2c-5.7 4.6-10.8 8.3-11.3 8.3s-10.2-16.2-21.6-36.1l-20.8-36 2.3-1.8c1.3-1.1 15.4-12.3 31.3-24.9 16-12.7 29.3-23.1 29.8-23.2.4 0 .7 23.7.7 52.7zM397.9 612.8l15.4 12.2h-64.2l10-17.5 10.1-17.4 6.6 5.3c3.7 2.9 13.6 10.7 22.1 17.4zm159.7 23.1c-.3.4-11 9.1-23.8 19.2s-24.2 19.2-25.5 20.2l-2.3 1.8V635h26.1c14.5 0 25.8.4 25.5.9z"/>
  <path d="M480.5 269.7c-52.2 4.5-102.1 27.5-139.9 64.2-36.7 35.7-58.6 77.4-67.7 128.8-2 11-2.3 16.2-2.3 37.3 0 21.1.3 26.3 2.3 37.3 9.1 51.4 31 93.1 67.7 128.8 39 38 89.9 60.7 144.2 64.4l10.2.8v-40.8l-34.5-27.3L426 636h-43.8c-41.3 0-44-.1-45.5-1.8-1-1-1.7-2.9-1.7-4.1 0-1.2 5.7-12.1 12.7-24.2 7.2-12.5 12.2-22.3 11.7-22.8l-13.2-10.5L334 563l.2-62.8.3-62.7 80.2-63.5 80.2-63.5.1-20.8V269l-5.2.2c-2.9.1-7.1.3-9.3.5zm25.7 19.9.3 20.8 80 63.4c44 34.9 80.3 64.1 80.7 65.1 1.1 2.6.9 119.6-.2 122.5-.7 1.8-17.4 16.2-25.8 22.2-.2.1 5.5 10.4 12.7 22.9 7.2 12.5 13.1 23.4 13.1 24.1 0 .8-.9 2.3-2 3.4-1.9 1.9-3.3 2-45.9 2h-43.9l-34.4 27.3-34.3 27.2-.3 20.4-.2 20.4 9.7-.7c31.1-2.2 58.7-9.6 86.1-23.1 70-34.3 117.7-100.7 127.7-177.8 2-15.3 2-44.1 0-59.4-10-77.1-57.7-143.5-127.7-177.8-27.4-13.5-55-20.9-86.1-23.1l-9.7-.7.2 20.9z"/>
  <path d="M425.2 380.1c-41.4 32.8-75.4 60.1-75.5 60.6-.1.4 14.2 12.2 31.8 26.1 28 22.2 32 25.1 32.9 23.5.5-1 19.1-33.3 41.3-71.8 26-45.2 41.1-70.5 42.7-71.4 2.1-1.3 2.7-1.3 4.6 0 1.3.8 20.8 33.6 43.5 72.9 22.6 39.3 41.5 71.4 41.9 71.3 1.1-.3 63.5-49.7 63.6-50.4 0-.5-30.1-24.5-147.5-117.4l-4-3.2-75.3 59.8z"/>
  <path d="M461.7 431c-21.3 36.9-38.7 67.4-38.7 67.9 0 .7 67.7 55 79.2 63.4l3.8 2.9V624h144.9l-3.3-5.8c-1.9-3.1-35.4-61.3-74.6-129.2-39.1-67.9-71.5-123.9-71.9-124.3-.4-.4-18.2 29.4-39.4 66.3z"/>
  <path d="m345 505.2.1 52.3 45.2 35.7c37.1 29.3 81 64.1 101 80l3.7 3V571.3l-73.7-58.4c-40.5-32.1-74.2-58.8-75-59.2-1.1-.7-1.3 7.9-1.3 51.5zm279.8-27.9C603.7 494 594.3 502 594.6 503c.3.8 9.5 17.1 20.6 36.2l20 34.8 5.2-4.1c2.8-2.3 7.5-6 10.4-8.3l5.2-4.1v-52.2c0-28.8-.1-52.3-.2-52.3-.2 0-14.1 10.9-31 24.3zM360.1 607.1c-5.1 8.8-9.1 16.3-8.8 16.5.2.2 13.6.3 29.7.2l29.3-.3-16.4-13c-9-7.1-18.2-14.4-20.5-16.2l-4-3.2-9.3 16zm145.9 49c0 16 .3 19.9 1.3 19.2 15.8-12.5 46.6-36.9 47.7-37.9 1.2-1.2-2.3-1.4-23.8-1.4H506v20.1z"/>
</svg>