<svg xmlns="http://www.w3.org/2000/svg" fill="none" viewBox="0 0 15 15">
  <g clip-path="url(#a)">
    <path fill="#68C6E6" d="M15 7.5a7.464 7.464 0 0 1-.695 3.16l-4.169-2.41a.937.937 0 0 1 0-1.633l4.117-2.382A7.489 7.489 0 0 1 15 7.5ZM4.973 8.25.717 10.711a7.545 7.545 0 0 1 .051-6.527l4.205 2.432a.941.941 0 0 1 0 1.634ZM7.04 0v4.797a.944.944 0 0 1-.941.943.939.939 0 0 1-.47-.127l-4.25-2.457A7.5 7.5 0 0 1 7.041 0Z"/>
    <path fill="#392B5F" d="M13.662 3.221 9.528 5.613a.94.94 0 0 1-1.412-.816V.01a7.476 7.476 0 0 1 5.546 3.211Z"/>
    <path fill="#68C6E6" d="M7.045 10.125V15a7.481 7.481 0 0 1-5.708-3.211l4.296-2.482a.94.94 0 0 1 1.412.818ZM13.707 11.719a7.5 7.5 0 0 1-5.586 3.269v-4.863a.944.944 0 0 1 .941-.944.94.94 0 0 1 .471.127l4.174 2.41Z"/>
  </g>
  <defs>
    <clipPath id="a">
      <path fill="#fff" d="M0 0h15v15H0z"/>
    </clipPath>
  </defs>
</svg>
