<svg xmlns="http://www.w3.org/2000/svg" version="1.0" viewBox="292.5 293.09 584.5 584.49">
  <path fill="#FFF" d="M549 294.6c-55.6 7.6-102.9 27.6-147 62.3-14.7 11.5-38.1 35.6-49.7 51.1-32.3 43.1-49.8 86.3-58 142.5-2.4 16.6-2.4 52.4 0 69 8.5 58.9 27.3 103.5 62.6 148.5 11.3 14.4 35.5 38 51.1 49.7 43.1 32.3 85.5 49.6 142.5 58 16.7 2.5 52.3 2.5 69 0 45.8-6.8 80.3-18.7 115.9-39.9 33.2-19.8 66-50.2 88.3-81.8 18.3-25.9 33.3-56.7 41.8-86.1 8.2-28.2 11.5-52 11.5-82.9 0-23.2-1.4-38.3-5.5-58.5-16.1-79.8-65.7-149.9-136-192.2-12.2-7.4-24.5-13.6-25.3-12.9-.3.3-.8 2.5-1.2 4.8-.4 2.4-1.5 7.9-2.5 12.3-.9 4.4-1.3 8.1-.8 8.2 4.1 1.4 24.5 13.9 35.4 21.7 32 22.8 58.4 52.3 77.2 86.3 5.8 10.5 6.5 12 12.4 26.3 18.4 44.5 23.8 93.8 15.7 142.5-2.9 16.9-5.5 25.7-7.2 24-.3-.3-.9-4.2-1.3-8.7-1-10.8-2.5-20.7-4.5-28.8-1.5-6.5-6.7-22.8-8.4-26.5-6.5-14.6-9.7-20.8-15.5-30.1-3.8-6-8-12.3-9.4-14-1.4-1.7-4.4-5.2-6.6-7.9-10.8-13.1-24.4-25.4-39.5-35.7-19.4-13.2-50.1-25.7-71.5-29-8.9-1.3-10.5-1.7-10.5-2.8 0-1.2 9.9-1.2 19.5 0 23 2.9 42.5 8.1 61.9 16.6 5.5 2.4 10.2 4.2 10.4 3.9.2-.2-1-2.7-2.7-5.5-5.2-8.5-4.5-8.8 7.1-2.7 14.3 7.5 19.9 10.8 34.2 20.5 7.6 5.1 14 9.1 14.2 8.9.8-.8-17-17.5-27.6-25.8-16.5-13.1-49.5-32.1-66.5-38.4-3.8-1.4-7.9-3-9-3.5-5.7-2.6-31.3-9.4-41-11-3.8-.6-7.1-1.3-7.5-1.5-.3-.2-3.5-.5-7-.6l-6.5-.3-10.7 7.1c-15.6 10.4-44.2 24.4-46.8 22.8-.6-.4.9-2.8 4-6.1 5.6-6.2 11.2-15.6 14-23.6l1.8-5.3 13.3-6.7c15.6-7.8 28-16.8 39.9-28.8 13.4-13.4 22.1-25.7 15.2-21.3-1 .6-3.3 1.4-5.2 1.7-1.9.4-4.3 1-5.2 1.2-2.2.7-2.4-1.9-.3-3.6 2.3-1.9 16.7-22.6 20.5-29.5 5.7-10.2 8.2-15.7 7.3-16.5-1.6-1.5-19.3-8-31.4-11.5-14.8-4.3-32.1-7.9-48.2-10-15.2-1.9-55.8-1.9-70.7.1zm62.8 26.5c18.4 2 28.6 3.6 44.2 7.3 10.9 2.5 23.5 7.2 23.8 8.7.7 3.6-28.1 32.6-43.3 43.6-11.6 8.4-18.3 12.5-19.3 11.9-.5-.3-1.2-2.7-1.4-5.3-.5-5.4-6.7-21.5-8.4-22-.6-.2-3.4 2.8-6.2 6.6-3.1 4.2-8.3 9.5-13.4 13.5-14.3 11.3-28.1 18.4-64.1 33.1-12.7 5.2-23.7 18.6-23.7 29 0 8 6.9 17 15.1 19.4 4.1 1.3 5 2.6 2.2 3.5-5.7 1.5-8.4 1.6-12.4.1-2.4-.9-5.2-1.9-6.1-2.2-1.2-.4-3.7 1.3-7.9 5.1-13.4 12.4-27 19.6-37.3 19.6-9.7 0-14.6-6.4-13.1-17.2l.7-5-4.3 3c-5.7 3.9-16.5 15.1-21.9 22.6a73.22 73.22 0 0 0-13.7 45.5c.5 12.7 2.7 26.2 4.4 26.8.7.3 4.8-2.1 9.1-5.4 21.5-16.5 43.4-27.1 69.2-33.7 31.1-7.9 70.6-8.1 105.7-.6 17.1 3.7 18.6 4 19 3.7.1-.2-2.4-3.5-5.6-7.3-8.1-9.5-19-18.2-31.6-25-5.2-2.9-5.4-4.1-.8-5.1 10.4-2.1 56.5 2.1 63.5 5.8 1 .5 2.5.9 3.4.9 2.2 0 20.6 6.2 28.9 9.8 34.2 14.8 65.4 42 85.1 74.3 6 9.8 15.4 28.8 15.4 31.2 0 .7.4 1.7.9 2.2.5.6 1.8 4.4 3.1 8.5 1.2 4.1 2.5 8.6 3 10 .5 1.4 1.7 6.5 2.7 11.5 2.6 13.2 2.6 53.5-.1 65-3.9 16.8-6.5 24-13.8 38.4-14.5 28.5-36.9 49.8-68.3 65.1-12.8 6.2-25.4 10.7-37.5 13.4-4.1 1-9.1 2.2-11 2.7-10.2 2.8-32.9 4.8-54 4.8-27.5 0-46.5-2.4-70.5-9.1-3.8-1.1-8.6-2.4-10.5-2.9-1.9-.6-4.4-1.4-5.5-1.8-1.1-.5-5.8-2.3-10.5-4.1-4.7-1.8-14.8-6.5-22.5-10.4-42.4-21.7-76.3-52.9-103.2-95.2-5.5-8.5-15.1-27.4-18.4-35.9-1.1-2.8-2.4-5.9-2.9-7-.5-1.1-1.9-5.2-3-9-1.2-3.9-2.6-7.9-3.1-9-1.7-4-5.3-20.1-8.1-36.5-2.8-17.1-3.1-56.9-.4-73.5 1.9-12.1 4.3-24.4 5.7-29 .4-1.7 1.8-6.4 3-10.5 13.7-48.4 46.7-96.9 87.9-128.9 10.6-8.3 27.3-20.1 28.3-20.1.2 0 5-2.5 10.8-5.6 5.7-3.1 13.1-6.7 16.4-8 3.3-1.4 6.9-2.9 8-3.4 3.3-1.6 15.8-6.2 19-7 1.7-.5 6.6-1.8 11-3 10.6-2.9 20.1-4.8 30.5-6.1 4.7-.5 11.4-1.4 15-1.8 9.7-1.2 31.8-1.2 42.8 0zm-22.3 96.1c-.4 1.8-2.6 7.4-5 12.4-3.5 7.2-5.7 10.3-10.7 15-3.5 3.2-8.6 6.9-11.3 8.2-2.8 1.3-5.7 2.7-6.5 3.1-3.3 1.8-18.8 4.2-24.5 3.9l-6-.3.3-5c.5-10.1 8.5-16.6 30.9-25 13.2-4.9 23.9-10 28.3-13.5 3.8-3 5.3-2.6 4.5 1.2zm-142.8 85.4c1.9 3 2 9.2.2 13.6-1.1 2.6-3.9 4-3.9 1.8 0-.5-.9-1.4-2.1-2-2.9-1.6-9.8 1.3-14.5 6.1-2.1 2.1-4.2 3.9-4.7 3.9-1.5 0 .3-7.1 2.9-12 6.8-12.3 17.8-18 22.1-11.4z"/>
  <g fill="#003" stroke-width="0">
    <path d="M698.2 325.5c-6 12.1-19.9 33.1-23.7 35.7-.5.4.4.8 2.1.8 1.6 0 3.4-.4 4-.9.5-.5 2.6-1.3 4.7-1.6 5.1-1 4.9.7-1.2 8.6-11.9 15.6-30.3 32.1-47.1 42.1-7 4.2-9.8 5.5-17.8 8.9-2.6 1.2-3.7 2.6-5.7 8-3 7.7-8.5 17.2-12.3 21.1-1.4 1.6-2.3 2.8-1.9 2.8.4 0 4.6-1.8 9.3-4 4.7-2.2 8.8-4 9-4 .8 0 22.9-13.5 26.7-16.4 2.3-1.7 5.3-3.8 6.7-4.7 1.4-.9 7-6.1 12.6-11.6 9.9-9.9 21.4-24.9 25-32.8 1-2.2 2.6-5.1 3.5-6.5 2.6-4 8.7-20.2 10.9-29.2 1.1-4.6 2.5-9.9 3-11.8.5-1.9 1.2-5.1 1.5-7.1.5-3.4.3-3.8-2.3-4.7-2.8-1-2.9-.9-7 7.3zM582 420.9c-2.5 1.5-6.6 3.6-9.2 4.6-3.5 1.5-4.8 2.6-5.2 4.6-1 5.1-11.3 18.9-14.1 18.9-.6 0-2.1.9-3.3 2.1-1.3 1.1-3.9 2.7-6 3.5l-3.7 1.4 6.2-.5c14.6-1.3 29.3-12.7 36.5-28.3 2.1-4.6 3.7-8.6 3.6-8.8-.2-.1-2.4 1-4.8 2.5zM708.5 471c5 1.6 9.9 3.4 11 3.9 14 6.3 25.7 12.4 33.5 17.5 6.9 4.5 10.5 6.3 13 6.3 12.9.3 43 7.6 49.5 12 4.6 3.1 3.2.9-2.3-3.7-3.3-2.8-6.3-5-6.7-5-.4 0-2.4-1.3-4.4-2.9-7.4-5.8-39.1-23.9-39.1-22.3 0 .4 1.2 3 2.7 5.9 1.5 2.8 2.4 5.5 2.1 5.9-.4.3-5.8-1.6-12-4.4-12.8-5.7-30.1-11.7-36.8-12.7-2.5-.4-5.2-1.1-6-1.5-.8-.4-4.2-1.1-7.5-1.4l-6-.6 9 3zm-134.9 26.8c-.3.6.2 1.3 1.2 1.6 1 .4 5.9 3.5 10.8 7.1 4.9 3.6 9.8 6.5 10.9 6.5 11.8.3 39.1 6 48 10 1.1.5 4.9 2.1 8.5 3.6 8.3 3.3 28.3 14 31.8 16.8 1.5 1.3 5 3.8 7.7 5.6 2.8 1.9 5.2 3.6 5.5 4 .3.3 3.9 3.3 8.1 6.7 4.1 3.4 8.7 7.7 10.2 9.6 1.4 1.9 3.9 4.8 5.4 6.4 16 16.7 32.6 47 39.9 72.8 5.1 17.9 5.9 24.4 5.9 47 0 17.5-.4 23.5-1.8 29.5-2.1 9-4.8 18.1-5.7 19.5-.4.5-1.6 3.2-2.6 6-2.4 6.6-10.1 21.5-12.3 24-2.5 2.8-3.7 5-2.2 4.1 1.6-1 11.5-14.6 14-19.2 1.2-2.2 2.5-4.6 3.1-5.4 2.5-3.9 6.8-14.2 8.9-21 1.3-4.1 2.6-8.4 3.1-9.5.4-1.1 1.6-5.6 2.6-10 2.7-11.5 2.7-50.2.1-62.5-4.5-20.8-10.7-37.9-19.9-54.8-20.4-37.6-51-65.5-92-83.6-2-.9-4-1.6-4.5-1.6-.4 0-1.9-.6-3.3-1.3-1.4-.7-5.4-2.1-9-3.1-3.6-1-8.5-2.4-11-3.1-10.8-3.2-25.5-5.1-45.6-6.1-10.3-.4-15.3-.3-15.8.4z"/>
    <path d="M511 526.9c-.8.4-4.6 1.1-8.3 1.5-13.5 1.3-34.7 7.5-50.2 14.6-6.6 3-24.6 13.2-24.2 13.6.1.2 3.4-1.3 7.2-3.1 3.9-1.9 11.1-4.9 16-6.6 5-1.8 9.5-3.6 10-4 1.8-1.4 18.3-4.7 31.7-6.4 24.1-3.1 57-.5 83.8 6.5 15.4 4 26.4 7.1 28 8 2.3 1.2 6 1.3 6 .1 0-.4-1.8-3.5-4-6.7-2.2-3.3-4-6.5-4-7.1 0-2-6.9-5-14.5-6.3-21.9-3.8-27.3-4.2-51-4.6-13.7-.2-25.7 0-26.5.5zm108.7 62.2c-.5 1.9 1.8 8.6 3.4 9.9 1.5 1.2 3.9 15.5 3.9 22.9 0 12.9-3.3 23.1-11.6 35.9-6.4 9.8-17.8 21.5-28 28.4-10.5 7.1-27.8 15.5-39.4 19-15.9 4.8-23.2 5.9-42.7 6.5-17 .5-20.9.3-32.5-1.7-7.3-1.2-13.8-2.6-14.5-3.2-.6-.5-1.7-.8-2.5-.7-1.2.2-2.4-.1-7.3-2.1-1.1-.4-4-1.5-6.5-2.5-11.9-4.6-28.5-14.2-40.5-23.4l-7.4-5.6c-3.4-2.6-20.6-20.4-22.8-23.8-1.4-2-2.9-3.7-3.4-3.7-.7 0-8.8-11.6-9-12.9 0-.3-1.6-2.6-3.4-5.1-1.9-2.5-4.1-5.9-4.8-7.5-.8-1.7-3.2-5.9-5.4-9.5-2.1-3.6-4.5-8.1-5.3-10-.7-1.9-2.1-4.6-3-6-1-1.4-2-3.2-2.3-4-.3-.8-.6 1.9-.6 6 0 7.7 2.6 27.3 5.3 39 .8 3.6 2 8.7 2.6 11.5.6 2.7 1.5 5.9 2 7 .4 1.1 1.8 5.1 3 9 1.2 3.8 2.7 8.3 3.4 10 .8 1.6 2 4.6 2.7 6.5 1.7 4.2 14.2 29.1 17.2 34.1 11.2 18.9 32.4 44 48.7 57.9 15.1 12.9 19.3 15.4 43.2 26.3 12.3 5.6 34.5 10.5 51.5 11.3 14.2.8 36.8-1.4 42.8-4.1 1.7-.7 5.5-1.9 8.5-2.6 3-.7 6.5-1.8 7.7-2.6 1.2-.8 2.7-1.2 3.3-.8.5.3 2.3-.3 3.8-1.4 1.6-1.1 4.9-2.5 7.5-3.1 2.5-.7 4.8-1.8 5.1-2.6.3-.8 1.2-1.4 1.9-1.4.8 0 2-.6 2.6-1.4.7-.8 2.6-1.8 4.2-2.1 1.6-.4 3.4-1.5 3.9-2.5.6-1 1.9-2.2 3.1-2.5 1.8-.6 13.1-8.1 22.5-14.9 4-2.8 15.4-14.6 15.4-15.8 0-.4 1.2-1.4 2.6-2 1.4-.7 3.4-2.9 4.5-5s2.3-3.8 2.8-3.8c1.1 0 8.1-10.6 8.1-12.4 0-.8 1.3-3.4 2.9-5.8 1.5-2.4 3.3-6.1 3.9-8.3.6-2.2 2-7.2 3.2-11 1.8-6.1 2.1-8.9 1.8-21.3-.3-11.4-.7-14.6-2-15.9-1.5-1.4-1.9-1.4-5.5.7-2.1 1.3-5.8 4.2-8.3 6.5-4.5 4.1-10.5 7.3-11.7 6.2-.3-.4 0-4.2.7-8.5.7-4.4 1-8.7.7-9.6-.6-1.5-1-1.5-4.5.3-2.1 1.1-4.3 3.1-5 4.5-1.2 2.8-4 3.4-6 1.4-1.7-1.7-1.5-4.3.8-8.8 1.7-3.3 2-6 2.1-18.2.1-16-1.4-24.8-5.6-32.6-1.4-2.6-2.5-5.1-2.5-5.7 0-.5-1.1-2.3-2.5-3.9s-2.5-4.1-2.5-5.6c0-2.4-1.6-5-3.1-5-.4 0-.9.9-1.2 2.1z"/>
  </g>
  <path fill="#336" d="M599.8 519.4c6.6 6.8 12.4 14.5 11.6 15.7-.3.5-.1.9.4.9 1.7 0 2.1-2.8.6-3.4-.9-.3-1.3-1-.9-1.5.6-1-4.4-9-5.7-9.1-1.6 0-4.8-3.5-4.8-5.2 0-1-.3-1.9-.7-1.9-5.5-1-5.5-.7-.5 4.5zm141.6 261.1c-3.2 3.6-6.2 6.5-6.7 6.5s-2.4 1.6-4.1 3.6c-1.7 2-4.9 4.9-7 6.3-2.1 1.4-4.6 3-5.4 3.6-.8.5-2.5 1.9-3.7 3-2.6 2.3-11.6 7.1-12.7 6.7-.5-.1-.8.3-.8.9 0 .6-.7.8-1.6.5-.8-.3-1.2-.2-.9.4.4.6-.6 1-2.3 1-1.6 0-3.5.7-4.2 1.5-.7.9-1.9 1.4-2.7 1.1-.7-.3-1.3.1-1.3.9 0 1.6-5.6 4.9-7 4-.5-.3-1.1-.1-1.5.5-.3.5-1.6 1-2.9 1-1.2 0-2.7.5-3.4 1.2-.9.9-1.2.9-1.2 0 0-.7-.7-1.2-1.6-1.2-1 0-1.4.6-1 1.5.6 1.7-.9 2.1-1.9.5-.9-1.5-2.5-1.2-2.5.5 0 2.1-5.1 4-6.1 2.3-.6-.9-1.2-.9-2.6.3-2.4 2.1-7.3 4-8.3 3.4-.4-.3-2.3.2-4.1 1l-3.4 1.6 4.5-.7c14.9-2 51.9-15.1 50.3-17.7-.3-.6-.1-.7.5-.3 2.4 1.5 20.8-10.2 34.2-21.7 6.7-5.8 18.9-18.7 17.6-18.7-.2 0-3.1 2.9-6.2 6.5zm-311.4.8c.8.8 5.6 4.4 10.5 7.9 27.1 19.3 57.3 33.3 88 40.7 13.1 3.2 13.5 3.2 13.5 2.1 0-.5-1.3-1-2.9-1-1.6 0-4.6-.7-6.7-1.6-3.9-1.7-5.6-2-10.7-2.3-1.8-.1-2.6-.5-2.1-1.2.4-.7 0-.9-1.4-.5-1.2.4-2.2.1-2.5-.8-.4-.9-1.4-1.2-2.5-.9-1.1.2-2.3 0-2.6-.6-.4-.6-1.9-1.1-3.4-1.1s-3.6-.7-4.6-1.5c-1.1-.8-3-1.5-4.3-1.5-1.3 0-2.3-.5-2.3-1.1 0-.6-.7-.9-1.5-.6-.8.4-1.7.2-2-.3-.3-.4.1-1 .7-1.3.8-.2.9-.8.4-1.3s-1.1-.4-1.3.3c-.7 1.9-3 1.6-4.2-.5-.6-1-1.1-1.2-1.1-.4 0 2.1-2 .3-2-1.9 0-1-.4-1.9-1-1.9-.5 0-.7.7-.4 1.5.9 2.3-2.4.7-3.7-1.8-.8-1.3-1.3-1.6-1.8-.8-1.1 1.7-3.3.5-5.6-2.9-1.4-2.1-2.3-2.6-3.2-1.8-1 .8-1.3.5-1.3-1.1 0-2.2-1.4-2.8-2.5-1-.8 1.1-4.9-1.2-7.6-4.3-.9-1-2.5-1.8-3.6-1.8s-2.8-.9-3.8-2-2.7-2.2-3.8-2.6c-1.2-.4-5.7-3.1-10.1-6.1-4.5-3.1-7.4-4.9-6.6-4zm115.5 50.6c-1.7.7-1.5.9 1.5 1.9 6.3 1.9 39.4 4.5 50.2 3.9 17.2-.9 37.2-2.8 39.8-3.7 1.7-.7.2-.8-5-.4-4.1.2-12 .7-17.5 1-5.5.2-12.3.9-15.1 1.5-2.9.7-7.8.9-11 .6-3.3-.3-9-.8-12.9-1.1-3.8-.2-9-.7-11.5-1-2.5-.3-7.3-.8-10.8-1.1-3.4-.4-6-1.1-5.7-1.6.7-1 .7-1-2 0z"/>
  <path fill="#9CF" d="M458.8 388.8c-4.2 3.1-8.6 6.8-9.7 8.1-1.2 1.3-2.1 2.1-2.1 1.7 0-2.2-14.4 10.3-22.5 19.5-1.7 1.9-6.2 7-10.1 11.4-3.9 4.4-8.3 10.2-9.8 13l-2.7 5 3.8-4.5c2.1-2.5 5-5.7 6.6-7.2 1.5-1.4 2.7-3.1 2.7-3.7 0-.6 1.5-1.1 3.3-1.1 2.1 0 3.6-.7 4.5-2 1.5-2.4.5-2.6-2-.3-2.7 2.5-2.2.2.8-3 1.7-1.9 3.2-2.6 4.4-2.2 1.5.5 1.7.2 1.3-1.6-.5-1.8-.3-2 1.6-1.4 1.7.5 2.1.2 2.1-1.3 0-1.3.9-2.2 2.5-2.6 1.4-.4 2.5-1.4 2.5-2.3 0-1.3.3-1.4 1.2-.5 1.7 1.7 2.8 1.5 2.8-.4 0-.9.5-1.4 1.2-1.2 1.8.6 4.8-2.3 4.8-4.7 0-2.5 1.8-4.5 4-4.5 2.1 0 5-3.1 5-5.3 0-.9.6-1.7 1.4-1.7.8 0 2.7-1.4 4.3-3 1.5-1.7 3.3-3 3.9-3 .6 0 1.7-.7 2.4-1.5 1-1.2 1-1.5-.1-1.5-1 0-1-.3-.1-1.2 1-1 1.5-1 2.1.1.6.9 1.1 1 1.5.2 1-1.5-.2-3.1-2.2-3.1-.9 0-5.2 2.6-9.4 5.8z"/>
  <g fill="#69C" stroke-width="0">
    <path d="M576 322c-2.5.3 2.5.6 11 .6 16.4-.1 33.9 1.4 48 4 4.7.9 9.3 1.6 10.3 1.6.9-.1 1.7.3 1.7.9 0 .5 1 .9 2.3.9 2.2-.1 2.2-.1-.3-1.5-2.3-1.2-17-3.5-41.1-6.5-9.1-1.1-24.5-1.1-31.9 0zm-21 2c-13.3 2.1-19.5 3.4-30 6.1-11.7 3.1-23.3 6.9-22.7 7.5.2.2 3.2-.5 6.8-1.6 3.5-1.1 8.4-2.7 10.9-3.4 2.5-.8 6.3-1.7 8.5-2.1 2.2-.4 4.9-1 6-1.5 2.7-1.1 19.2-4 29-4.9 7.6-.8 7.7-.8 2-.8-3.3 0-8 .3-10.5.7zm-67 18.8c-45.4 19.9-84.6 52.7-111.9 93.6-8.2 12.3-15.7 25.7-11.7 21.1 1.4-1.7 2.6-3.6 2.6-4.3 0-.6.5-1.2 1-1.2.6 0 1-.6 1-1.3 0-1.6 11.7-19.6 15.5-23.8 1.4-1.6 2.5-3.2 2.5-3.5 0-.4 1.5-2.3 3.3-4.4 1.7-2 4.8-5.6 6.7-8 9.8-12.3 41.9-41 45.8-41 .5 0 1.6-.7 2.3-1.6 1.7-2.1 10.5-7.7 18.3-11.7 3.4-1.8 6.3-3.5 6.6-3.8.7-.8 16.8-8.4 19.9-9.4 2.9-.9 9.1-4.5 7.6-4.4-.5 0-4.8 1.7-9.5 3.7zm184.2.5c-2.3 2.4-4.2 4.6-4.2 4.9 0 1.7-22.3 22.4-27.6 25.8-1.3.8-2.4 1.8-2.4 2.2 0 .5-.5.8-1.1.8-.5 0-4.1 2.5-7.9 5.6-8 6.5-10.3 6.7-10.8 1.1-.2-2-.8-3.7-1.4-3.7-.6 0-.8 1-.4 2.2.3 1.3.6 3.3.6 4.4 0 1.3.8 2.4 2 2.7 4.3 1.1 36.3-24.8 51.4-41.7 7.4-8.2 8.7-11.3 1.8-4.3zM560 347.6c-6.9.8-13.4 1.8-14.5 2.4-1.6.8-1.3.9 1.5.5 9.1-1.2 14-1.4 14-.5 0 .6-.7 1-1.5 1-.9 0-1.8.7-2.2 1.6-.4 1-1.3 1.4-2.8 1-1.2-.3-3.9.3-6 1.4-2.2 1.1-4.7 2-5.7 2-2.6 0-3.1 1.8-.6 2.3 1.3.3 0 .5-2.8.4-2.7 0-5.4.2-6 .5-.5.3-2.1.8-3.6 1.2-3.1.7-3.8 3.6-.9 3.6 2.3 0 3.1 1.9 3.1 7.1 0 2.7.5 4.2 1.5 4.6 2.9 1.1-1.9 3.3-8 3.6-4.6.3-6.1.8-7.6 2.8-1.9 2.3-2 2.3-3.4.5-1.2-1.5-1.7-1.7-2.9-.7-1.8 1.5-3.6.7-3.6-1.5 0-2.4-3.5-1.2-3.8 1.3-.3 1.7.1 2 1.6 1.6 2.3-.6 3.5.8 2.6 3.1-.4 1.2-1.9 1.6-5.4 1.6-2.9 0-5.2.6-5.9 1.4-.7.8-2.3 1.7-3.6 2-2.4.6-3.7 4.6-1.5 4.6.6 0 1-.5 1-1 0-.6.7-1 1.7-1 1.5 0 1.5.1 0 1.8-2.1 2.3-2.1 3.2-.2 3.2 2.3 0 1.8 1.8-1.1 3.6-1.4 1-2.1 2-1.6 2.3 1.4.8.2 6.1-1.3 6.1-.7 0-1.8.7-2.6 1.6-.7.9-2.1 1.3-3.5 1-1.6-.4-3 .3-5.2 2.5-2.9 2.9-3 3-3.5.8-.5-1.7-1.1-2.1-3.1-1.7-1.4.3-2.6.1-2.6-.3 0-1.6-2.3-.9-5.8 1.8-3.4 2.6-3.4 2.7-1.3 3.5 1.8.6 2 1.1 1.1 2.8-1.2 2.2-2.5 2.6-3.5 1-.4-.6-2.1 0-4.3 1.5-2 1.4-4.2 2.5-4.8 2.5-.6 0-3.8 2.7-7.2 6-3.3 3.3-6.9 6-8 6-1.1 0-2.3.7-2.6 1.6-.8 2.1-.8 2.1 1.4 2.7 1.5.4 1.8 1 1.3 2.4-.3 1-1.1 2.1-1.7 2.5-.7.5-.7.8.2.8.6 0 1.2.5 1.2 1 0 .6-1 .8-2.4.4-2.9-.7-8.3 2.1-9.2 4.8-.7 2.5-2.3 2.3-3.3-.4-.8-2.1-1-1.9-2.9 2.2-1.1 2.5-3 5.1-4.1 5.8-2.4 1.4-2.8 5-.7 5.8 1.1.4 3.6 5.2 3.6 6.9 0 1.1-4.2 1-5.1-.1-1.7-2.1-3-1.7-6.6 1.8-2.7 2.6-3.5 2.9-4.7 1.9-.8-.7-2-.9-2.7-.5-.7.4-2.4.7-3.8.8-2.2.1-2.6.6-2.8 3.6-1.2 17.2-1 16.5-3.6 16.8-2.1.3-2.6-.2-3-2.5-.8-4.6-.1-8.6 1.6-9.2 1.4-.5 1.4-1 .4-3-1.9-3.8-3.8-3.9-3.1-.2.6 2.7.4 3.1-1.6 3.1-1.5 0-2 .4-1.7 1.5.8 1.8-1.3 3.2-2.3 1.6-.9-1.5-2.7 3.1-2.9 7.1-.1 2.1.4 2.8 1.9 2.8 1 0 2.2.5 2.5 1 .4.6 1.5.8 2.5.5 1.5-.5 1.7-.2 1.3 1.5-.4 1.5-1.4 2-3.7 2-4.1.1-6.6 2.1-6.6 5.4 0 1.7-.5 2.6-1.6 2.6-1.2 0-1.5.7-1.2 2.5.4 1.8-.1 2.9-1.8 4-1.6 1-2.5 2.9-3 6-.6 4.1-2.4 7.4-2.4 4.4 0-.8-.3-.9-.9-.4-1.5 1.6-3.2 21.1-2.2 23.9 1.4 3.6 3.2 4.3 4.9 1.8.8-1.2 2-2.2 2.8-2.2.7 0 2.6-1.6 4.1-3.5 1.5-2 4.3-4.3 6.2-5.2 1.9-.9 5.3-3.5 7.5-5.7 4.9-4.7 10.6-8.9 11.3-8.2.3.3.9 4.3 1.4 8.9 1.1 10.9 3.8 26.7 5 28.9 1.4 2.7 3.2 2.2 8.5-2.2 2.7-2.2 5-3.6 5.2-3 .2.5.9 1 1.5 1s.4-.7-.5-1.6c-1.6-1.6-2-1.4-6.6 2.5-7.5 6.2-7.1 6.5-9.8-9.4-1.2-7.4-1.5-13.5-1.1-23.5.5-12.9.7-13.9 4.5-23.2 6.4-15.6 13.8-25.1 31.3-40 4.8-4.2 6.9-5.4 7.7-4.6.8.8.8 1.7 0 3.1-.6 1.1-1.1 5-1.2 8.7-.1 5.4.3 7.2 1.8 8.9 2.7 3 8.7 4.4 13.4 3.2 2-.6 4-1.1 4.5-1.1 1.3 0 12.4-5.8 16.8-8.9 2.4-1.6 7.5-5.8 11.3-9.3l6.9-6.4 4.5 2.3c4.8 2.4 7.7 3 6.7 1.3-.3-.6-1.4-1-2.3-1-1 0-3.5-.9-5.6-2.1l-3.9-2-3.6 3.3c-1.9 1.8-3.7 3.6-3.9 4-.2.5-.9.8-1.6.8-.7 0-1.8 1.1-2.4 2.5-.6 1.3-2.4 2.8-3.9 3.1-1.5.4-4.1 2-5.8 3.6-1.6 1.5-3.5 2.8-4.1 2.8-.7 0-3.1.9-5.5 2-5.3 2.4-7.3 2.5-6.5.5.4-1.1-.1-1.5-1.8-1.5-1.3 0-2.9-.6-3.5-1.4-.9-1.1-.5-1.7 1.6-3.1 1.6-.9 3.8-2.9 5-4.3 1.7-2 2.5-2.3 3.6-1.4 2 1.7 3.7-.5 3-3.9-.6-3 .3-3.5 7.1-4.1 2.4-.2 3.1-.9 3.8-3.4.8-3.2 4.7-6.6 7.8-6.8.8-.1 2.9-1.3 4.5-2.9 1.6-1.5 3.5-2.7 4.1-2.7.6 0 2.7 2.6 4.7 5.8 3.8 6.2 6 8.5 9.2 9.6 1.1.4.3-.7-1.8-2.5-11.2-9.3-10.2-25.7 2.2-37.8 5-4.9 12.5-9 23.6-13.1 33.6-12.2 60.9-30.2 70.7-46.5 1.8-3 3.5-5.5 3.8-5.5.9 0 6.9 12 7.6 15.2.3 1.6 1 2.5 1.5 2.3.4-.3.3-1.8-.3-3.3-.6-1.5-1.5-3.8-2-5.2-.6-1.4-1.4-3.3-1.9-4.2-.5-1-.9-2.3-.9-2.9 0-1.4-4.1-4.8-5.7-4.9-.7 0-1.3.8-1.3 1.9 0 1.8-3 5.2-3 3.5-.1-1.6-2.9 4-3 5.8 0 .9-.6 2.1-1.3 2.5-.7.4-2.8 2.7-4.7 5.1-1.9 2.3-4.4 4.5-5.6 4.8-1.3.3-3.5 2.2-4.9 4.1-2.5 3.2-3 3.4-7.1 2.9-4.2-.4-5.9.5-3.1 1.8.6.3.1.3-1.1 0-2-.5-2.3-.3-1.8 1.3.5 1.4-.1 2.3-1.9 3.3-2.3 1.2-2.8 1.2-4.6-.7-2.8-2.8-1.7-6.8 2.3-8.2 1.7-.6 3.4-.8 3.9-.5.5.3.9 0 .9-.6s1.7-1.9 3.8-2.8c2.6-1.2 3.7-2.2 3.4-3.2-.5-1.3-.3-1.3 1.1-.1 1.5 1.2 1.7 1.1 1.8-.5.1-1.1.1-2.5 0-3.2-.3-1.8 4-3.2 6.2-2 2.4 1.2 5.7-1.6 5.7-4.8 0-1.5 1.3-3.3 3.5-5 1.9-1.4 3.5-3.2 3.5-3.9 0-.7 1.4-1.8 3-2.4 1.7-.5 3-1.6 3-2.2 0-.7 1.2-2.5 2.6-4 2.4-2.5 2.4-2.7.7-3.2-4.9-1.4-35.6-1.5-47.3-.1zm-46.5 45.3c.3.5 1.9 1.3 3.6 1.6 2.7.6 2.9.9 1.7 2.2-.8.8-3.1 1.6-5.2 1.8-2.8.2-3.9-.1-4.7-1.7-.6-1.1-.8-2.6-.5-3.4.6-1.6 4.2-1.9 5.1-.5zm-110.7 98.9c-.4 6-.2 8 .9 9.1 1.2 1.1 1.3 1.5.1 2.2-2.1 1.4-2.7 1.1-2.1-1.1.4-1.5 0-2-1.5-2-2.3 0-3.2-1.8-3.2-6.5 0-3.4 2.1-6.1 4-5 .6.4 1-.4 1-1.9 0-1.4.3-2.6.6-2.6.4 0 .4 3.5.2 7.8zM704.5 350c-1.8.7-1.9.8-.2 1.5.9.4 2.4.5 3.2.2.8-.4 1.6-.3 1.9.1.3.5 3.1 2.1 6.3 3.7 5.2 2.6 18.3 10.6 20.8 12.7.6.5 4.2 3.2 8 5.9 17.5 12.6 39.3 34.5 53.1 53.4 3.2 4.4 6.4 8.6 7.1 9.3.7.7 1.3 2 1.3 2.8 0 .8.4 1.4 1 1.4.5 0 1.2 1.1 1.6 2.4a9.1 9.1 0 0 0 2.5 4.2c1 .9 1.9 2.3 1.9 3.1 0 .7 1.8 4.2 4 7.7s4 6.6 4 6.9c0 .4 2 5 4.5 10.3 2.5 5.3 4.8 10.8 5.1 12.3.4 1.4 1 3 1.4 3.6.4.5 2 5 3.5 9.8 1.4 4.9 2.9 8.6 3.2 8.4.7-.8-7.1-23.2-11.8-34-6.7-15.2-18.7-36.3-26.3-46.2-18.7-24.3-36-41.8-55.8-56.6-13.7-10.2-34-22.4-37-22.2-1 .1-1.6-.2-1.3-.8.7-1 .7-1-2 .1zm-50.4 72.5c.4.3 4.4 1 9 1.5 8.4 1 10.6 1.4 25.4 5 8.3 2 11.8 2 4.3 0-2.3-.7-5.4-1.6-6.8-2.1-5.7-1.9-33.2-5.8-31.9-4.4z"/>
    <path d="M556.5 430.9c-14.9 5.4-26.3 12.8-28.6 18.9-1.4 3.6-1.1 6.2.7 6.2 1.2 0 1.4-.3.6-1.3-.6-.7-.8-2.4-.5-3.7.8-2.9 6.1-9 7.9-9 .7 0 2.3-.9 3.6-2.1 2.5-2.2 12.1-6.4 17.2-7.5 1.7-.4 3.4-1.2 3.9-1.8.5-.8 1-.7 1.7.4.8 1.3 1 1.2 1-.3 0-2.1-1.1-2.1-7.5.2zm165.5 8.4c.3.3 4.7 2.3 9.7 4.5 20.6 8.9 43.9 23.3 62.3 38.3 13.4 10.9 31.3 28.8 30.6 30.6-.3.7.3 1.7 1.3 2.3 3.3 1.7 1.9-1.2-3.4-7.6-5.4-6.4-12.5-13.3-13.7-13.4-.5 0-.8-.7-.8-1.5s-.4-1.5-.9-1.5c-.4 0-1.9-1-3.3-2.3-3-2.7-4.2-3.7-19.5-15.3a253.8 253.8 0 0 0-31.5-20.4c-14.6-8-33.1-16.3-30.8-13.7zm-364 28.3c-9.3 20.4-17.3 44.2-20.4 61.3-1 5.7.8 2.4 2.1-3.7 2.1-10.3 3.4-15.7 4.3-17.7 1.3-3.3 2.8-7.8 3.5-11 .4-1.6 1.5-5 2.6-7.5s2.6-5.9 3.4-7.5c.7-1.7 1.6-4.1 2-5.5.4-1.4 2.1-5.1 3.7-8.3 1.7-3.2 2.8-6.1 2.5-6.4-.3-.3-2 2.6-3.7 6.3zm412 38.1c23.9 20.9 38.9 40.2 51 65.6 10.4 21.9 15.1 38.7 17.9 64 .5 3.7 1 7 1.3 7.2 1.4 1.4 6.9-27.2 6.7-34.4-.1-3-.3-2.7-1 1.9-2.9 18.1-5.8 29.4-5.9 22.6 0-1.6-.4-4.3-.9-6-.5-1.7-1.5-6.6-2.1-10.8-.6-4.2-2.5-11.8-4.1-17-1.7-5.1-3.2-10-3.4-10.9-.2-.9-1.2-3.6-2.3-6a62.8 62.8 0 0 1-2.7-6.9c-.4-1.4-2.2-5-4-8-1.8-3-3.6-6.5-4-7.8-.3-1.2-1-2.2-1.4-2.2-.4 0-1.3-1.2-2-2.8-2.5-5.4-10.7-16.8-18-25.2-10.2-11.7-17.5-19.3-19.7-20.6-1.1-.6-2.4-2.2-3.1-3.5-.7-1.3-2-2.4-3-2.4-1-.1-2.5-.4-3.3-.9-.8-.4 1 1.4 4 4.1zm-435.3 41.8c-1.9 16.6-2.6 32.5-1.4 32.5.4 0 .7-4.5.7-10 0-5.4.7-14.9 1.6-21.1.8-6.1 1.4-12.3 1.2-13.8-.2-1.4-1.1 4.1-2.1 12.4z"/>
  </g>
  <g fill="#39C" stroke-width="0">
    <path d="M590 322.7c-16.6.4-36.7 2.3-46.5 4.5-4.9 1.1-11 2.4-13.5 2.9-8.9 1.7-30.4 8.6-36 11.5-2.5 1.3-4.9 2.4-5.3 2.4-1.1 0-18.1 8.1-18.7 8.9-.3.3-3.2 2-6.6 3.8-6.5 3.3-13.3 7.7-22.7 14.6-3.1 2.3-7.6 5.5-10 7.2-6.5 4.6-27.7 25-33.7 32.5-1.9 2.4-5 6-6.7 8-1.8 2.1-3.3 4-3.3 4.4 0 .3-1.1 1.9-2.5 3.4-3.6 4.1-15.5 22.4-15.5 23.9 0 .7-.3 1.3-.7 1.3-.5 0-1.3 1-1.9 2.3-.6 1.2-3.1 6-5.6 10.7-2.5 4.7-4.9 9.6-5.3 11-.7 2.3-2.7 7.1-6 14.5-.7 1.6-1.7 4.3-2 6-.4 1.6-1.5 5.5-2.5 8.5-6.2 18.6-11 47-11 64.9 0 9.5.1 10.2 4.6 20.2 2.5 5.7 5 10.8 5.4 11.4.4.5 2.4 4.1 4.3 8 4.1 8.1 17.2 27.8 23.7 35.6 5.8 7 17 19 19.2 20.7.9.7 2.3 1.8 3 2.5C411.4 684.4 442 701 462 705c27.6 5.4 42.4 6.2 61.5 3 12.4-2 17.6-3.2 22-5 1.1-.4 4-1.3 6.4-2 11-3 34.7-16.7 45.8-26.5 6.8-6 16.8-19.3 20.6-27.4 4.7-10 6.8-21.8 5.5-31.6-1.8-14.7-7.5-26.6-16.8-35.5-7.2-6.9-17.9-11.6-35-15.5-25.1-5.8-44.4-6.9-63.5-3.6-14 2.4-22.6 5.8-27.6 11.1-5.2 5.5-5.2 8.7.2 17 3.1 4.9 3.7 6.5 2.7 7.1-.7.5-2 .7-2.8.4-.8-.2-3.3-.7-5.5-1-23.2-3.5-37.4-10-52.2-23.7-3.4-3.2-6.7-5.8-7.2-5.8s-2.8 1.6-5.1 3.5c-4.7 3.9-6.5 4.3-7.9 1.7-1.2-2.2-3.9-18-5-28.9-.5-4.6-1.1-8.6-1.4-8.9-.7-.7-6.4 3.5-11.3 8.2-2.2 2.2-5.6 4.8-7.5 5.7-1.9.9-4.7 3.2-6.2 5.2-1.5 1.9-3.4 3.5-4.1 3.5-.8 0-2 1-2.8 2.2-1.7 2.5-3.5 1.8-4.9-1.9-2.1-5.6 2.2-30.1 9.1-51.6 3.5-11 12.8-32.8 16-37.7.5-.8 2.1-3.5 3.5-6 17.9-31.8 47.7-61.8 82-82.6 18.6-11.2 43.5-21.4 63.5-25.8 4.1-.9 8.9-2.1 10.5-2.6 7.2-2.2 32.2-4.1 46-3.5 7.7.4 15.1.8 16.4 1.1l2.4.5-2.7 2.8c-1.4 1.5-2.6 3.3-2.6 4 0 .6-1.3 1.7-3 2.2-1.6.6-3 1.7-3 2.4s-1.6 2.5-3.5 3.9c-2.2 1.7-3.5 3.5-3.5 5 0 3.2-3.3 6-5.7 4.8-2.2-1.2-6.5.2-6.2 2 .1.7.1 2.1 0 3.2-.1 1.6-.3 1.7-1.8.5-1.4-1.2-1.6-1.2-1.1.1.3 1-.8 2-3.4 3.2-2.1.9-3.8 2.2-3.8 2.8 0 .6-.4.9-.9.6-.5-.3-2.2-.1-3.9.5-4 1.4-5.1 5.4-2.3 8.2 1.8 1.9 2.3 1.9 4.6.7 1.8-1 2.4-1.9 1.9-3.3-.5-1.6-.2-1.8 1.8-1.3 1.2.3 1.7.3 1.1 0-2.8-1.3-1.1-2.2 3.1-1.8 4.1.5 4.6.3 7.1-2.9 1.4-1.9 3.6-3.8 4.9-4.1 1.2-.3 3.7-2.5 5.6-4.8 1.9-2.4 4-4.7 4.7-5.1.7-.4 1.3-1.6 1.3-2.5.1-1.8 2.9-7.4 3-5.8 0 1.7 3-1.7 3-3.5 0-1.1.6-1.9 1.3-1.9 1.6.1 5.7 3.5 5.7 4.9 0 .6.4 1.9.9 2.9 2.8 5.4 6 14.9 6.3 18.7.5 4.7 3.1 4.3 10.6-1.7 3.7-3 8.3-6.5 10.3-7.9 7-4.7 28.9-25 28.9-26.8 0-.4 1.8-2.5 4-4.6 2.2-2.1 4-4.3 4-4.7 0-.8-6.1-3.7-9.1-4.3-.8-.2-3.1-1-5-1.8-2-.8-5.8-1.7-8.6-2.1-2.9-.3-6.4-1.1-8-1.7-4.4-1.7-17.6-3.8-30.3-4.8-6.3-.5-12.2-1.1-13-1.3-.8-.2-6.2-.3-12-.1z"/>
    <path d="M701.9 355.4c-1.9 6-11.3 25.1-16.3 33-4.6 7.3-9.7 13.3-21.5 25.2-8.2 8.2-8.2 9.3-.6 9.4 4.5.1 19.2 3 27.5 5.4 3 .9 8.7 2.5 12.5 3.4 3.9 1 8.8 2.6 11 3.6 6.3 2.8 7.8 3.4 10.5 4.1 2 .6 11.8 5.2 24 11.4 10.1 5.2 24.6 14.4 35.3 22.5 15.3 11.6 16.5 12.6 19.5 15.3 1.4 1.3 2.9 2.3 3.3 2.3.5 0 .9.7.9 1.5s.3 1.5.8 1.5c2.2.1 19.2 18.8 19.2 21.3 0 .7 1.1 2 2.5 2.7 1.4.7 2.5 1.7 2.5 2.2 0 1-4 .1-5.5-1.3-.5-.5-1.5-.9-2.3-.9-.8 0-2.6-.8-4-1.9-5.9-4.1-33.6-12.3-46.4-13.6-3.1-.3-3.6-.1-3.1 1.3.8 2.1 3.4 5.2 4.4 5.2.9 0 8.5 8 19 20 7.3 8.4 15.5 19.8 18 25.2.7 1.6 1.6 2.8 2 2.8.4 0 1.1 1 1.4 2.2.4 1.3 2.2 4.8 4 7.8 1.8 3 3.6 6.6 4 8 .4 1.4 1.6 4.5 2.7 6.9 1.1 2.4 2.1 5.1 2.3 6 .2.9 1.7 5.8 3.4 10.9 1.6 5.2 3.5 12.8 4.1 17 .6 4.2 1.6 9.1 2.1 10.8.5 1.7.9 4.4.9 6 .1 7.1 3.2-5 6-23.6 1.4-9.1 1.4-47.3 0-59-1.4-11.9-3-19.9-4.6-24.3-.8-2-1.4-5.2-1.4-7.1 0-3-5.5-21.9-8-27.1-.5-1.1-1.2-3.1-1.6-4.4-.3-1.3-2.6-6.6-5-11.8-2.4-5.2-4.4-9.6-4.4-10 0-.3-1.8-3.4-4-6.9-2.2-3.5-4-7-4-7.7 0-.8-.9-2.2-1.9-3.1a9.1 9.1 0 0 1-2.5-4.2c-.4-1.3-1.1-2.4-1.6-2.4-.6 0-1-.6-1-1.4 0-.8-.6-2.1-1.3-2.8-.7-.7-3.9-4.9-7.1-9.3-13.8-18.9-35.6-40.8-53.1-53.4-3.8-2.7-7.4-5.4-8-5.8-6.5-5.5-24.5-15.3-29.6-16.3-3.6-.7-3.7-.6-5 3.4zM557 432.5c-7.7 2.3-14.3 5.2-16.8 7.4-1.3 1.1-2.9 2.1-3.6 2.1-1.9 0-7.2 6.2-7.9 9.2-.7 2.8 1.4 5.5 3.3 4.3.5-.3 2-.8 3.2-1 3.4-.6 14.2-5.8 15.1-7.3.4-.6 1.2-1.2 1.8-1.2 1.2 0 7.9-6.3 7.9-7.4 0-.4.7-1.4 1.5-2.2 1.5-1.6 2.1-5.5.8-5.3-.5 0-2.8.7-5.3 1.4zm-66.5 21.2c-1.6 1.6-3.7 2.8-4.5 2.9-3.1.2-7 3.6-7.8 6.8-.7 2.5-1.4 3.2-3.8 3.4-6.9.6-7.7 1.1-7.1 4.2.7 3.4-1.2 5.7-3.2 3.7-.9-.9-1.6-.6-3.4 1.5-1.2 1.4-3.4 3.4-5 4.3-2.1 1.4-2.5 2-1.6 3.1 1.7 2.1 5 1.8 4.2-.3-.5-1.3-.2-1.5 1.1-1 1 .4 2.2.7 2.7.7s.9.7.9 1.5-.9 1.5-2 1.5-2 .4-2 1c0 1.5 2 1.2 6.9-1 2.4-1.1 4.8-2 5.5-2 .6 0 2.5-1.3 4.1-2.8 1.7-1.6 4.3-3.2 5.8-3.6 1.5-.3 3.3-1.8 3.9-3.1.6-1.4 1.7-2.5 2.4-2.5s1.4-.3 1.6-.8c.2-.4 2-2.2 3.9-4l3.6-3.3 3.9 2c2.1 1.2 4.7 2.1 5.8 2.1 1.5 0 1.2-.7-1.7-3.9-1.9-2.1-4.7-5.9-6.2-8.5-1.5-2.5-3.2-4.6-3.9-4.6-.6 0-2.5 1.2-4.1 2.7z"/>
  </g>
  <g fill="#69F" stroke-width="0">
    <path d="M550.5 350.1c-5.7.7-16.8 3.2-28.1 6.3-11.9 3.3-49.5 19.8-48.1 21.2.2.2 2.9-.9 6-2.6 3.1-1.6 6.3-3 7.2-3 .8 0 1.5-.5 1.5-1.1 0-.7.9-.9 2.1-.6 2.9.8 7.9-.3 7.9-1.7.1-2.2 4.4-4.3 7.8-3.8 1.7.2 3.2.7 3.2 1.1-.1 1.5-1.8 3-5.2 4.4-2.1.9-3.8 2.2-3.8 3 0 2.4-3.3 4.5-9.1 5.6-4.1.9-6.3 2-8.7 4.5-1.8 1.9-3.2 3.8-3.2 4.3s-2.8 3.6-6.3 6.8c-4.3 4-7.9 6.4-11.3 7.4-3.8 1.3-5 2.1-5.2 4-.2 1.3.2 2.7.8 3.1 1.6 1 .4 3-1.8 3-.9 0-3 .7-4.6 1.5-1.5.8-3.5 1.5-4.3 1.5-1.5 0-15.3 13.6-15.3 15.2 0 1.3-7.7 8.6-11.9 11.3-2 1.2-5.8 4.1-8.6 6.4-4 3.3-5.1 4.9-5.5 7.8-.5 3.5-.8 3.8-4.5 4.4-4.9.8-5.2.6-3.3-2.3 1.7-2.6 2.9-5.8 2.3-5.8-.9 0-4.7 4.6-5.6 6.7-.5 1.3-1.3 2.3-1.9 2.3-1.4 0-1.3-.6.6-4.1.8-1.7 1.3-3.3 1.1-3.5-.5-.5-6.1 8.9-9 15.1-1 2.2-2.4 4.6-3.1 5.5-1.7 2-13.6 31.4-13.6 33.6 0 1-.5 3.1-1 4.8-4.9 15.2-5.9 18.7-5.4 20.1 1 2.4 2.1.8 2.8-4 .5-3.1 1.4-5 3-6 1.7-1.1 2.2-2.2 1.8-4-.3-1.8 0-2.5 1.2-2.5 1.1 0 1.6-.9 1.6-2.6 0-3.3 2.5-5.3 6.6-5.4 2.3 0 3.3-.5 3.7-2 .4-1.7.2-2-1.3-1.5-1 .3-2.1.1-2.5-.5-.3-.5-1.5-1-2.5-1-1.5 0-2-.7-1.9-2.8.2-4 2-8.6 2.9-7.1 1 1.6 3.1.2 2.3-1.6-.3-1.1.2-1.5 1.7-1.5 2 0 2.2-.4 1.6-3.1-.7-3.7 1.2-3.6 3.1.2 1 2 1 2.5-.4 3-1.7.6-2.4 4.6-1.6 9.2.4 2.3.9 2.8 3 2.5 2.6-.3 2.4.4 3.6-16.8.2-3 .6-3.5 2.8-3.6 1.4-.1 3.1-.4 3.8-.8.7-.4 1.9-.2 2.7.5 1.2 1 2 .7 4.7-1.9 3.6-3.5 4.9-3.9 6.6-1.8.9 1.1 5.1 1.2 5.1.1 0-1.7-2.5-6.5-3.6-6.9-2.1-.8-1.7-4.4.7-5.8 1.1-.7 3-3.3 4.1-5.8 1.9-4.1 2.1-4.3 2.9-2.2 1 2.7 2.6 2.9 3.3.4.9-2.7 6.3-5.5 9.2-4.8 1.4.4 2.4.2 2.4-.4 0-.5-.6-1-1.2-1-.9 0-.9-.3-.2-.8.6-.4 1.4-1.5 1.7-2.5.5-1.4.2-2-1.4-2.4-1.2-.4-1.8-1.1-1.5-2 .3-.8.6-1.7.6-1.9 0-.2.9-.4 2.1-.4 1.3 0 4.6-2.5 8.1-6 3.4-3.3 6.6-6 7.2-6 .6 0 2.8-1.1 4.8-2.5 2.2-1.5 3.9-2.1 4.3-1.5 1 1.6 2.3 1.2 3.5-1 .9-1.7.7-2.2-1.1-2.8-2.1-.8-2.1-.9 1.3-3.5 3.5-2.7 5.8-3.4 5.8-1.8 0 .4 1.2.6 2.6.3 2-.4 2.6 0 3.1 1.7.5 2.2.6 2.1 3.5-.8 2.2-2.2 3.6-2.9 5.2-2.5 1.4.3 2.8-.1 3.5-1 .8-.9 1.9-1.6 2.6-1.6 1.5 0 2.7-5.3 1.3-6.1-.5-.3.2-1.3 1.6-2.3 2.9-1.8 3.4-3.6 1.1-3.6-1.9 0-1.9-.9.2-3.2 1.5-1.7 1.5-1.8 0-1.8-1 0-1.7.4-1.7 1 0 .5-.4 1-1 1-2.2 0-.9-4 1.5-4.6 1.3-.3 2.9-1.2 3.6-2 .7-.8 3-1.4 5.9-1.4 3.5 0 5-.4 5.4-1.6.9-2.3-.3-3.7-2.6-3.1-1.5.4-1.9.1-1.6-1.6.3-2.5 3.8-3.7 3.8-1.3 0 2.2 1.8 3 3.6 1.5 1.2-1 1.7-.8 2.9.7 1.4 1.8 1.5 1.8 3.4-.5 1.5-2 3-2.5 7.6-2.8 6.1-.3 10.9-2.5 8-3.6-1-.4-1.5-1.9-1.5-4.6 0-5.2-.8-7.1-3.1-7.1-2.9 0-2.2-2.9.9-3.6 1.5-.4 3.1-.9 3.6-1.2.6-.3 3.3-.5 6-.5 2.8.1 4.1-.1 2.8-.4-2.5-.5-2-2.3.6-2.3 1 0 3.5-.9 5.7-2 2.1-1.1 4.8-1.7 6-1.4 1.5.4 2.4 0 2.8-1 .4-.9 1.3-1.6 2.2-1.6.8 0 1.5-.4 1.5-.9 0-1-2.3-1-10.5 0z"/>
    <path d="M446.7 395.8c-7.3 5.5-21.6 19-31.7 29.9-5.1 5.5-20.3 26.3-19.2 26.3.4 0 2.3-2.3 4.2-5.1 12.7-18.2 33.1-40.1 47-50.2 7-5.1 8.8-6.7 7.8-6.7-.2 0-3.8 2.6-8.1 5.8zm61.7-2.4c-.3.8-.1 2.3.5 3.4.8 1.6 1.9 1.9 4.7 1.7 2.1-.2 4.4-1 5.2-1.8 1.2-1.3 1-1.6-1.7-2.2-1.7-.3-3.3-1.1-3.6-1.6-.9-1.4-4.5-1.1-5.1.5zM402 486.6c0 1.5-.4 2.3-1 1.9-1.9-1.1-4 1.6-4 5 0 4.7.9 6.5 3.2 6.5 1.5 0 1.9.5 1.5 2-.6 2.2 0 2.5 2.1 1.1 1.2-.7 1.1-1.1-.1-2.2-1.1-1.1-1.3-3.1-.9-9.1.2-4.3.2-7.8-.2-7.8-.3 0-.6 1.2-.6 2.6z"/>
  </g>
  <g fill="#036" stroke-width="0">
    <path d="M699.6 353.7c-8.1 22.3-18.8 39.4-35.3 56.2-5.1 5.2-9.3 9.6-9.3 9.8 0 .2 2.5-1.7 5.5-4.3 11-9.5 24.6-27.7 32.2-42.9 4.5-9.1 9.7-22.4 9.1-23.1-.3-.2-1.3 1.7-2.2 4.3zm-99.8 161c.6.2 1.2 1.2 1.2 2.2 0 1.6 3.2 5.1 4.8 5.1 1.3.1 6.3 8.1 5.7 9.1-.4.5 0 1.2.9 1.5 1.8.7 1 3.4-1.1 3.4-.8 0-1.1.5-.8 1 .9 1.5-1.6.8-3.4-.9-1.1-1-1.6-1.1-1.9-.2-.3.9-1 .7-2.3-.5-1-.9 1.1 2.7 4.6 8 3.6 5.3 6.5 10.1 6.5 10.6 0 1.9-1.9 1.9-5.6.1-10.9-5.3-45.7-14.2-60.9-15.6-3.8-.3-8.3-.9-9.9-1.2-1.9-.3-2.6-.2-2.2.6.4.6 0 1.1-.8 1.1-.9 0-1.6-.7-1.6-1.5 0-1.3-2.3-1.5-14.6-1.5-8.1 0-17.4.4-20.8 1l-13.1 2c-7.9 1.2-9 1.4-15.9 2.9-6.2 1.5-20.9 6.3-21.6 7.1-.3.3-2.5 1.2-5 2-7 2.2-17.9 7.9-19.1 10.1-.5 1.1-1.4 1.7-2 1.4-.5-.4-.9 0-.9.8 0 1.5 7.5 9.5 12.4 13.2 9.7 7.4 27.6 14.7 39.1 16 3.3.4 6.8.9 7.8 1.1 1.4.4 1.1-.4-1.3-4.3-9.2-15.1 1.2-26.1 29.5-31.1 1.7-.3 11.6-.5 22-.6 19.3-.1 33.2 1.4 45.3 4.9 2.8.8 7.3 2.1 10 2.8 2.6.8 8.1 3 12.3 4.9 6.5 3 8.4 4.5 13.2 10.4 3 3.8 7.1 10 9.1 13.9 2 3.8 3.4 5.9 3 4.5-1.3-5-8.4-16.5-11.1-18.3-1.9-1.2-1.6-2.7.5-2.7.9 0 4.9 2.8 8.7 6.1 3.9 3.4 8 6.8 9.3 7.6 6.4 4.3 19.5 27.5 21.4 37.9 2.4 12.7.9 37.7-2.7 46.6-.5 1.4-.2 1.8 1.4 1.8 1.2 0 2.1-.4 2.1-.9s1.9-2 4.3-3.4c5.4-3.2 15.2-12.7 20.5-19.9 2.4-3.3 5.2-8.8 6.6-13 1.3-4 3-7.4 3.7-7.5 1.8-.4 4 4.6 7.5 16.2 4.4 15.1 3.6 36.8-2 55.4-3.8 12.5-15.7 32.4-27.7 46.3-5.6 6.4-18 17.1-26.4 22.8-2.7 1.8-5.4 4-5.8 4.7-.4.7-1.3 1.3-1.9 1.3-.6 0-3.2 1.5-5.7 3.4-7.1 5.1-35.7 17.4-47.1 20.3-21.6 5.6-29.6 6.6-49 6.5-12.7 0-21.1-.6-30.5-2.1-12.2-2-30.8-7.2-33-9.2-.5-.5-1.6-.9-2.5-.9-.9 0-4.7-1.6-8.4-3.5-8.2-4.2-8.7-4.3-4.8-1 1.7 1.4 3.8 2.5 4.7 2.5 1 0 2.5.8 3.4 1.8 2.7 3.1 6.8 5.4 7.6 4.3 1.1-1.8 2.5-1.2 2.5 1 0 1.6.3 1.9 1.3 1.1.9-.8 1.8-.3 3.2 1.8 2.3 3.4 4.5 4.6 5.6 2.9.5-.8 1-.5 1.8.8 1.3 2.5 4.6 4.1 3.7 1.8-.3-.8-.1-1.5.4-1.5.6 0 1 .9 1 1.9 0 2.5 1.6 3.6 2.4 1.6.3-.8 1.1-1.5 1.8-1.4 1 0 1 .2.1.6-.7.2-1.3.9-1.3 1.4 0 1.1 4.9 3.3 6.8 3 .6-.1 1.2.3 1.2.9 0 .5 1 1 2.3 1 1.3 0 3.2.7 4.3 1.5 1 .8 3.1 1.5 4.6 1.5 1.5 0 3 .5 3.4 1.1.3.6 1.5.8 2.6.6 1.1-.3 2.1 0 2.5.9.3.9 1.3 1.2 2.5.8 1.4-.4 1.8-.2 1.4.5-.5.7.3 1.1 2.1 1.2 5.1.3 6.8.6 10.7 2.3 2.1.9 5.1 1.6 6.6 1.6 1.6 0 3 .5 3.2 1.1.2.7 1.2.7 3.1 0 1.6-.6 2.6-.7 2.2-.2-.3.5 2.3 1.2 5.7 1.6 3.5.3 8.3.8 10.8 1.1 2.5.3 7.7.8 11.5 1 3.9.3 9.6.8 12.9 1.1 3.2.3 8.1.1 11-.6 2.8-.6 9.4-1.3 14.6-1.5 17.2-.8 26.5-1.8 29.9-3.2 1.8-.8 3.7-1.2 4.1-.9 1 .6 5.9-1.4 8.3-3.4 1.4-1.2 2-1.2 2.6-.3 1 1.7 6.1-.2 6.1-2.3 0-1.7 1.6-2 2.5-.5 1 1.6 2.5 1.2 1.9-.5-.4-.9 0-1.5 1-1.5.9 0 1.6.5 1.6 1.2 0 .9.3.9 1.2 0 .7-.7 2.2-1.2 3.4-1.2 1.3 0 2.6-.5 2.9-1 .4-.6 1-.8 1.5-.5 1.5.9 7-2.4 7-4.1 0-.8.5-1.2 1-.9.6.3 1 .1 1-.5s.4-.9.9-.5c.5.3 1.2.1 1.6-.5.3-.5 2-1 3.6-1 1.7 0 2.8-.4 2.4-1-.3-.6.1-.7.9-.4.9.3 1.6.1 1.6-.5s.3-1 .8-.9c1.1.4 10.1-4.4 12.7-6.7 1.2-1.1 2.9-2.5 3.7-3 .8-.6 3.3-2.2 5.4-3.6 2.1-1.4 5.3-4.2 6.9-6.1 1.7-1.9 3.7-3.7 4.6-4 2.3-.9 7.2-7.5 6.5-8.7-.4-.6.2-1.5 1.2-2 1.1-.6 2.7-2.5 3.6-4.3.9-1.8 3.5-6.7 5.6-10.8 2.2-4.1 4.5-9.1 5.1-11 .6-1.9 1.8-5 2.6-6.9 3.1-6.9 6-22.4 7.8-42.9.9-9.2-.6-23-4.7-42.7-.9-4.5-1.5-6.7-3.8-14.5-3-9.9-14.1-34.1-17.5-38-.7-.8-2-3.1-3-5-6.7-13.1-34.6-42.1-51.8-53.8-10.6-7.2-23.7-14.3-36.7-19.7-7.4-3.1-8.9-3.6-22-7.1-11.9-3.1-33-6.7-28.2-4.7z"/>
    <path d="M333.1 587c0 2.8.3 3.8.7 2.7.6-1.3 2 .8 5.6 8.5 14.5 30.4 35.6 58.1 58.6 76.8 10.7 8.6 16.7 12.6 29 19.3 12 6.4 32.2 13.8 33.7 12.3.3-.3-.8-.8-2.3-1.1-5.6-1.2-20-6.8-28.9-11.3-17.4-8.7-30.9-18.8-46.5-34.8-18-18.6-30.7-37.2-44-64.6-5.9-12.1-6-12.2-5.9-7.8zm291.4 47.1c-1 6.9-8.3 21.2-15.5 30.3-5.3 6.7-8.6 9.8-21 19.9-4.1 3.3-2.1 2.5 3.1-1.3 12.6-9 25.5-24.7 30.7-37.3 3-7 5.2-16.7 3.9-16.7-.3 0-.8 2.3-1.2 5.1zm-45 55.6c-7.4 4.6-20.9 10.6-31 13.9-11.2 3.6-11.3 4.6-.2 1.3 8.3-2.5 30-12.6 33.7-15.7 3.2-2.8 2.5-2.6-2.5.5z"/>
    <path d="M463 707.8c3.3 2 23.4 4.2 38.3 4.2 16.1 0 38.2-2.8 36.4-4.6-.2-.2-3.9.4-8.3 1.3-9.6 2.1-46.8 2.5-54.9.6-7.4-1.8-13.3-2.5-11.5-1.5z"/>
  </g>
  <path fill="#369" d="M370.1 645c3.7 5.6 25.7 27.2 33.9 33.2 14.4 10.7 36.3 22.4 45.5 24.3 1.7.3-1.3-1.2-6.5-3.3-15.6-6.3-24.8-11.6-40.7-23.3-5.8-4.4-21.3-19.4-29.3-28.4-2.9-3.3-4.2-4.4-2.9-2.5z"/>
  <path fill="#36C" d="M513 559c-1.4.4-3.9.8-5.7.9-1.8.1-6.9 1.3-11.5 2.7-19.9 6.2-24.9 16.3-14.3 28.9 2.3 2.8 2.4 3.1.8 4.2-1.9 1.4-.6 1.8 1.5.4 1-.6.4-2.2-2.7-7.1-5.3-8.1-5.4-11.4-.4-16.9 7.6-8.5 29.9-13.7 55.1-12.9 7.5.2 12.4.1 10.7-.3-4.2-.9-30.5-.9-33.5.1z"/>
  <g fill="#006" stroke-width="0">
    <path d="M491.5 536.6c-13 1.8-28.7 5.2-30 6.6-.7.8-.4.9.9.4 3.8-1.3 12.1-3.1 21.6-4.6 17.9-2.8 23.7-3.2 37.8-2.9 8.5.2 14.3.1 13-.2-4-1.2-32.9-.7-43.3.7zm179.9-.4c23.8 15.6 26.5 17.7 40.1 31.2 7.7 7.8 16.4 17.4 19.4 21.3 2.9 4 5.4 7.3 5.6 7.3 1.6 0-8.4-13.6-14.8-20.3-1.5-1.6-4-4.5-5.4-6.4-1.5-1.9-6.1-6.2-10.2-9.6-4.2-3.4-7.8-6.4-8.1-6.7-.3-.4-2.7-2.1-5.5-4-2.7-1.8-6.3-4.4-7.9-5.7-1.6-1.3-5.6-3.7-9-5.4-3.4-1.6-5.2-2.3-4.2-1.7zm-68.4 1.3c0 .5 1.8 3.6 4 6.9 2.2 3.2 4 6.3 4 6.7 0 1.2-3.7 1.1-6-.1-2-1.1-22.3-6.8-27.5-7.7-6.1-1.1-1.7.6 9 3.5 13.4 3.7 16.9 4.9 21.9 7.3 3.6 1.8 5.6 1.8 5.6 0 0-.5-2.5-4.6-5.5-9.2s-5.5-8-5.5-7.4zm7 41.5c0 .5.6 1.3 1.3 1.7.6.4 2.5 2.7 4.1 5 3 4.4 4.6 5.4 4.6 2.8 0-.8.4-1.5.8-1.5 1.6 0 3.2 2.5 3.2 5 0 1.5 1.1 4 2.5 5.6 1.4 1.6 2.5 3.4 2.5 3.9 0 .6 1.1 3.1 2.5 5.7 4.2 7.8 5.7 16.6 5.6 32.6-.1 12.2-.4 14.9-2.1 18.2-2.3 4.5-2.5 7.1-.8 8.8 2 2 4.8 1.4 6-1.4.7-1.4 2.9-3.4 5-4.5 3.6-1.8 3.9-1.8 4.5-.3.4 1 .1 4.7-.5 8.3-.6 3.6-.9 6.7-.7 6.9.2.2.8-2.3 1.4-5.5.6-3.2 1.6-8.1 2.2-10.8 1.2-5.5.7-20.7-.9-29.9-1.9-10.3-15-33.5-21.4-37.9-1.3-.8-5.4-4.2-9.3-7.6-6.4-5.6-10.5-7.6-10.5-5.1zm128.6 21c.9 1.9 2.2 4.2 2.9 5 2 2.4 9.8 17.8 12.9 25.8 1.6 3.9 3.1 7 3.3 6.8 1.4-1.3-13.8-32.8-18.4-38.2l-2.4-2.9 1.7 3.5z"/>
    <path d="M685.5 634.2c-.2.7-1.4 4.2-2.5 7.7-1.2 3.5-4 8.8-6.2 11.9-5.4 7.2-15.1 16.7-20.5 19.9-2.4 1.4-4.3 2.9-4.3 3.4 0 1.5 5.2-1.6 8.5-5 1.6-1.8 4.9-4.3 7.3-5.7 6.8-4 7.5-2.8 8 14.8.3 12.4 0 15.2-1.8 21.3-1.2 3.8-2.6 8.8-3.2 11-.6 2.2-2.4 5.9-3.9 8.3-1.6 2.4-2.9 5-2.9 5.8 0 1.8-7 12.4-8.1 12.4-.5 0-1.7 1.7-2.8 3.8-1.1 2.1-3.1 4.3-4.5 5-1.4.6-2.6 1.6-2.6 2 0 1.2-11.4 13-15.4 15.8-9.4 6.8-20.7 14.3-22.5 14.9a5.9 5.9 0 0 0-3.1 2.5c-.5 1-2.3 2.1-3.9 2.5-1.6.3-3.5 1.3-4.2 2.1-.6.8-1.8 1.4-2.6 1.4-.7 0-1.6.6-1.9 1.4-.3.8-2.6 1.9-5.1 2.6-2.6.6-5.9 2-7.5 3.1-1.5 1.1-3.3 1.7-3.8 1.4-.6-.4-2.1 0-3.3.8-1.2.8-4.7 1.9-7.7 2.6-3 .7-6.8 1.9-8.5 2.6-5.7 2.5-28.6 4.8-42.8 4.3-12.7-.5-12.9-.5-5.2.6 11.5 1.6 36.3 1.2 47-.7 16.7-3 25.9-5.5 37.5-10.2 16.3-6.5 27.2-11.6 32.1-15.1 2.5-1.9 5.1-3.4 5.7-3.4.6 0 1.5-.6 1.9-1.3.4-.7 3.1-2.9 5.8-4.7 8.4-5.7 20.8-16.4 26.4-22.8 12-13.9 23.9-33.8 27.7-46.3 5.6-18.6 6.4-40.3 2-55.4-1.5-5-3.5-10.7-4.4-12.7-1.7-3.7-3.9-4.9-4.7-2.6z"/>
  </g>
  <path fill="#6CF" d="M402.7 443.2c-1.9 2.9-4.3 6.2-5.3 7.3-1.7 1.7-5.4 8.7-5.4 10 0 1.5 2.2.1 2.9-1.8.5-1.3 2.1-3.4 3.5-4.7 1.4-1.4 2.6-3 2.6-3.6 0-.6 1.4-3.7 3-6.8 1.7-3.1 2.8-5.6 2.5-5.6-.2 0-2 2.4-3.8 5.2z"/>
  <path fill="#99F" d="M500.5 366.6c-.8.6-1.5 1.6-1.5 2.2 0 .6-1.8 1.3-4 1.7-2.2.4-3.8 1-3.5 1.5.7 1.1-2.7 2.6-6.7 2.9-.9 0-2.5 1.7-3.4 3.6-1 2.1-2.3 3.5-3.5 3.5-1 0-2.1.5-2.5 1.1-.3.6-1.7.8-3.1.4-1.6-.4-2.2-.2-1.8.5.3.5.3 1.5-.1 2.1-.4.8-.9.7-1.5-.2-.6-1.1-1.1-1.1-2.1-.1-.9.9-.9 1.2.1 1.2 1.1 0 1.1.3.1 1.5-.7.8-1.8 1.5-2.4 1.5-.6 0-2.4 1.3-3.9 3-1.6 1.6-3.5 3-4.3 3-.8 0-1.4.8-1.4 1.8 0 2.2-3 5.2-5.1 5.2-2.1 0-3.9 2.1-3.9 4.5s-3 5.3-4.8 4.7c-.7-.2-1.2.3-1.2 1.2 0 1.9-1.1 2.1-2.8.4-.9-.9-1.2-.8-1.2.5 0 .9-1.1 1.9-2.5 2.3-1.6.4-2.5 1.3-2.5 2.6 0 1.5-.4 1.8-2.1 1.3-1.9-.6-2.1-.4-1.6 1.4.4 1.8.2 2.1-1.3 1.6-1.2-.4-2.7.3-4.4 2.2-3 3.2-3.5 5.5-.8 3 2.5-2.3 3.5-2.1 2 .3-.9 1.3-2.4 2-4.5 2-1.8 0-3.3.5-3.3 1.1 0 .6-1.2 2.3-2.6 3.8-6.9 7-10.5 12-11.5 15.5-.6 2.2-1.8 5-2.6 6.3-.9 1.3-1.4 2.5-1.2 2.7.2.2 2.2.1 4.4-.3 3.7-.6 4-.9 4.5-4.4.4-2.9 1.5-4.5 5.5-7.8 2.8-2.3 6.6-5.2 8.6-6.4 4.2-2.7 11.9-10 11.9-11.3 0-1.6 13.8-15.2 15.3-15.2.8 0 2.8-.7 4.3-1.5 1.6-.8 3.7-1.5 4.6-1.5 2.2 0 3.4-2 1.8-3-.6-.4-1-1.8-.8-3.1.2-1.9 1.4-2.7 5.2-4 3.4-1 7-3.4 11.3-7.4 3.5-3.2 6.3-6.3 6.3-6.8s1.4-2.4 3.2-4.3c2.4-2.5 4.6-3.6 8.7-4.5 5.8-1.1 9.1-3.2 9.1-5.6 0-.8 1.7-2.1 3.8-3 3.5-1.5 5.2-2.9 5.2-4.6 0-1.1-7.7-.4-9.5.9z"/>
</svg>
